<svg height="512" viewBox="0 0 512 512" width="512" xmlns="http://www.w3.org/2000/svg"><g id="BULINE"><circle cx="256" cy="256" fill="#27273d" r="256"/></g><g id="Icons"><path d="m205 5.08v501.83c-116.95-23.64-205-127-205-250.91s88.05-227.28 205-250.92z" fill="#02934d"/><path d="m512 256c0 139.92-112.23 253.61-251.59 256h-8.82a257.88 257.88 0 0 1 -46.59-5v-501.92a257.42 257.42 0 0 1 46-5h10c139.06 2.6 251 116.19 251 255.92z" fill="#db1b1b"/><path d="m205 88.46a108.5 108.5 0 1 0 108.5 108.54 108.63 108.63 0 0 0 -108.5-108.54zm93.2 101h-75.09l1.5-1.5 27.3-27.31 24.26-24.26a93 93 0 0 1 22.03 53.07zm-85.7-85.7a93 93 0 0 1 51 20.33l2 1.68-53 53.07zm-15 0v75.08l-2.7-2.69-30-30.05-20.32-20.33 2-1.68a93 93 0 0 1 51.02-20.33zm-63.67 32.63 24.27 24.26 27.3 27.35 1.5 1.5h-75.1a93.07 93.07 0 0 1 22.03-53.11zm-22 68.07h75.1l-10.4 10.39-14.33 14.32-15 15-13.33 13.34a93.18 93.18 0 0 1 -22.07-53.05zm85.7 85.69a93.12 93.12 0 0 1 -53.06-22l11.4-11.41 14.75-14.74 26.88-26.9zm15 0v-75.1l53.07 53.08a93.12 93.12 0 0 1 -53.1 22.02zm63.67-32.63-28.33-28.34-14.31-14.28-10.45-10.44h75.09a93.12 93.12 0 0 1 -22.03 53.06z" fill="#f6c752"/><path d="m148 124a8.51 8.51 0 0 0 -8.5 8.5v87.94h.37a65.51 65.51 0 0 0 65.13 58.56 65.5 65.5 0 0 0 65.13-58.56h.37v-87.99a8.5 8.5 0 0 0 -8.5-8.45z" fill="#e83838"/><path d="m166.3 146a8.2 8.2 0 0 0 -8.2 8.2v60.8h.26a46.91 46.91 0 0 0 46.64 42 46.92 46.92 0 0 0 46.65-42h.26v-60.85a8.2 8.2 0 0 0 -8.2-8.2z" fill="#fff"/><g fill="#3e436d"><path d="m195.59 155.45a2 2 0 0 0 -2 2v14.8h.07a11.41 11.41 0 0 0 11.34 10.2 11.41 11.41 0 0 0 11.35-10.2h.06v-14.8a2 2 0 0 0 -2-2z"/><path d="m195.59 222.37a2 2 0 0 0 -2 2v14.81h.07a11.41 11.41 0 0 0 11.34 10.19 11.41 11.41 0 0 0 11.35-10.2h.06v-14.81a2 2 0 0 0 -2-2z"/><path d="m195.59 188a2 2 0 0 0 -2 2v14.8h.07a11.41 11.41 0 0 0 11.34 10.2 11.41 11.41 0 0 0 11.35-10.2h.06v-14.8a2 2 0 0 0 -2-2z"/><path d="m168.59 188a2 2 0 0 0 -2 2v14.8h.07a11.41 11.41 0 0 0 11.34 10.2 11.41 11.41 0 0 0 11.35-10.2h.06v-14.8a2 2 0 0 0 -2-2z"/><path d="m223.09 188a2 2 0 0 0 -2 2v14.8h.07a11.41 11.41 0 0 0 11.34 10.2 11.41 11.41 0 0 0 11.35-10.2h.06v-14.8a2 2 0 0 0 -2-2z"/></g><path d="m205 5.08v22.14a256.1 256.1 0 0 0 0 457.55v22.14c-116.95-23.64-205-127-205-250.91s88.05-227.28 205-250.92z" fill="#037c3c"/><path d="m269 5.08a253.91 253.91 0 0 0 -64 22.14v-22.14a257.42 257.42 0 0 1 46-5h10a262 262 0 0 1 27 1.92c-6.4.77-12.74 1.82-19 3.08z" fill="#c41c1c"/><path d="m269 506.91c6.24 1.26 12.58 2.3 19 3.1a258.26 258.26 0 0 1 -27.59 1.99h-8.82a257.88 257.88 0 0 1 -46.59-5v-22.23a253.91 253.91 0 0 0 64 22.14z" fill="#c41c1c"/></g></svg>