<svg xmlns="http://www.w3.org/2000/svg" width="300.239" height="62.754" viewBox="0 0 300.239 62.754">
  <g id="Group_1" data-name="Group 1" transform="translate(-576.113 -254.182)">
    <path id="Path_2" data-name="Path 2" d="M2.8,0V-3.182l9.844-10.2q1.577-1.662,2.607-2.919a10.933,10.933,0,0,0,1.541-2.393,5.817,5.817,0,0,0,.511-2.415,4.527,4.527,0,0,0-.682-2.507,4.523,4.523,0,0,0-1.861-1.634,5.978,5.978,0,0,0-2.656-.575,5.581,5.581,0,0,0-2.727.639,4.38,4.38,0,0,0-1.79,1.8,5.684,5.684,0,0,0-.625,2.727H2.77A8.7,8.7,0,0,1,3.991-25.3a8.347,8.347,0,0,1,3.352-3.089,10.4,10.4,0,0,1,4.844-1.1A10.358,10.358,0,0,1,17.024-28.4,8.293,8.293,0,0,1,20.3-25.447a7.725,7.725,0,0,1,1.179,4.212,8.65,8.65,0,0,1-.6,3.168,14.019,14.019,0,0,1-2.1,3.445,57.929,57.929,0,0,1-4.148,4.6L8.849-3.977v.213h13.1V0ZM30.185.27a2.745,2.745,0,0,1-2-.831,2.726,2.726,0,0,1-.838-2.01,2.71,2.71,0,0,1,.838-2,2.745,2.745,0,0,1,2-.831,2.745,2.745,0,0,1,2,.831,2.71,2.71,0,0,1,.838,2,2.707,2.707,0,0,1-.391,1.428,2.978,2.978,0,0,1-1.03,1.03A2.708,2.708,0,0,1,30.185.27ZM47.7.483a9.488,9.488,0,0,1-5.753-1.776A10.94,10.94,0,0,1,38.3-6.42a23.124,23.124,0,0,1-1.264-8.111A22.84,22.84,0,0,1,38.3-22.614a10.965,10.965,0,0,1,3.665-5.114A9.4,9.4,0,0,1,47.7-29.489a9.345,9.345,0,0,1,5.724,1.768,11.036,11.036,0,0,1,3.658,5.114,22.781,22.781,0,0,1,1.271,8.075,23.11,23.11,0,0,1-1.264,8.118,10.988,10.988,0,0,1-3.651,5.128A9.368,9.368,0,0,1,47.7.483Zm0-3.793a5.132,5.132,0,0,0,4.624-2.884q1.669-2.884,1.669-8.338a21.366,21.366,0,0,0-.76-6.129,8.331,8.331,0,0,0-2.173-3.807,4.8,4.8,0,0,0-3.359-1.3,5.135,5.135,0,0,0-4.616,2.9q-1.676,2.9-1.69,8.338a21.425,21.425,0,0,0,.76,6.143A8.262,8.262,0,0,0,44.318-4.6,4.835,4.835,0,0,0,47.7-3.31Z" transform="translate(818 316)" fill="#6164ff"/>
    <path id="Path_1" data-name="Path 1" d="M12.195-61.818,29.4-11.47h.694L47.3-61.818H57.381L35.135,0H24.359L2.113-61.818ZM80.895.936A22.6,22.6,0,0,1,69.108-2.007a19.614,19.614,0,0,1-7.607-8.3A27.853,27.853,0,0,1,58.83-22.88,28.117,28.117,0,0,1,61.5-35.437a20.486,20.486,0,0,1,7.486-8.482,20.622,20.622,0,0,1,11.274-3.049,22.718,22.718,0,0,1,7.607,1.3,18.424,18.424,0,0,1,6.61,4.075A19.162,19.162,0,0,1,99.1-34.4a30.137,30.137,0,0,1,1.69,10.731v3.2H63.931v-6.761H91.942a13.411,13.411,0,0,0-1.449-6.324,11.014,11.014,0,0,0-4.06-4.362,11.465,11.465,0,0,0-6.112-1.6A11.78,11.78,0,0,0,73.7-37.655a12.545,12.545,0,0,0-4.347,4.83,13.92,13.92,0,0,0-1.524,6.444V-21.1a17.4,17.4,0,0,0,1.645,7.908,11.6,11.6,0,0,0,4.6,4.965A13.6,13.6,0,0,0,80.985-6.52a14.086,14.086,0,0,0,4.679-.74,9.935,9.935,0,0,0,3.652-2.219,9.7,9.7,0,0,0,2.354-3.652l8.542,1.539A15.433,15.433,0,0,1,96.546-5a17.767,17.767,0,0,1-6.61,4.377A24.645,24.645,0,0,1,80.895.936Zm38.968-28.464V0h-9.025V-46.364H119.5v7.546h.574a13.223,13.223,0,0,1,5.026-5.916,15.534,15.534,0,0,1,8.648-2.234,16.826,16.826,0,0,1,8.3,1.977,13.414,13.414,0,0,1,5.524,5.871,21.264,21.264,0,0,1,1.962,9.629V0H140.51V-28.4q0-5.041-2.626-7.893a9.32,9.32,0,0,0-7.214-2.852,11.219,11.219,0,0,0-5.569,1.358,9.664,9.664,0,0,0-3.833,3.969A13.126,13.126,0,0,0,119.863-27.528ZM181.138.936a21.286,21.286,0,0,1-11.38-2.988,20.15,20.15,0,0,1-7.546-8.361,27.745,27.745,0,0,1-2.686-12.557,28.008,28.008,0,0,1,2.686-12.617,20.11,20.11,0,0,1,7.546-8.391,21.286,21.286,0,0,1,11.38-2.988,21.286,21.286,0,0,1,11.38,2.988,20.11,20.11,0,0,1,7.546,8.391,28.008,28.008,0,0,1,2.686,12.617,27.744,27.744,0,0,1-2.686,12.557,20.15,20.15,0,0,1-7.546,8.361A21.286,21.286,0,0,1,181.138.936Zm.03-7.576a10.817,10.817,0,0,0,7-2.234,13.192,13.192,0,0,0,4.12-5.946A23.89,23.89,0,0,0,193.635-23a23.926,23.926,0,0,0-1.343-8.165,13.39,13.39,0,0,0-4.12-5.992,10.721,10.721,0,0,0-7-2.264,10.829,10.829,0,0,0-7.048,2.264,13.337,13.337,0,0,0-4.135,5.992A23.926,23.926,0,0,0,168.642-23a23.89,23.89,0,0,0,1.343,8.18,13.141,13.141,0,0,0,4.135,5.946A10.926,10.926,0,0,0,181.168-6.641ZM212.8,0V-46.364h8.723V-39h.483a11.257,11.257,0,0,1,4.482-5.9,12.777,12.777,0,0,1,7.29-2.158q.845,0,2.007.06t1.826.151v8.633a17.536,17.536,0,0,0-1.932-.347,19.824,19.824,0,0,0-2.777-.2,11.8,11.8,0,0,0-5.69,1.343,10.209,10.209,0,0,0-3.939,3.713,10.12,10.12,0,0,0-1.449,5.388V0Z" transform="translate(574 316)" fill="#fff"/>
  </g>
</svg>
